<svg xmlns="http://www.w3.org/2000/svg" width="256" height="256" viewBox="0 0 256 256" fill="none"><g transform="translate(128 128)" stroke-linecap="round" stroke-linejoin="round"><path d="M37 42A81 81 0 0 1 -62 52M-67 -47A81 81 0 0 1 14 -82" fill="none" stroke="#91cde3" stroke-width="2.1" opacity=".68"/><circle cx="-80" cy="-30" r="2.7" fill="#f0faff" opacity=".75"/><circle cx="83" cy="29" r="2.7" fill="#f0faff" opacity=".75"/><circle cx="-38" cy="74" r="2.7" fill="#f0faff" opacity=".75"/><g transform="translate(0 1) scale(0.68)" opacity=".87"><path d="M0 -50Q22 -38 45 -36L42 8Q36 38 0 52Q-36 38 -42 8L-45 -36Q-22 -38 0 -50Z" fill="#91cde3" stroke="#18212d" stroke-width="4" /><path d="M0 -41L0 40M-34 -27Q0 -28 34 -27M-32 11Q0 25 32 11" fill="none" stroke="#f0faff" stroke-width="3" /></g><g transform="translate(0 4) scale(1.22)"><g transform="rotate(45)"><path d="M-31 -40Q-43 -47 -48 -31Q-52 -22 -38 -16L-14 6L20 43Q29 53 40 41Q53 35 42 21L4 -11L-17 -29Z" fill="#e8d9aa" stroke="#18212d" stroke-width="4" /><path d="M-17 -20L25 31" fill="none" stroke="#91cde3" stroke-width="3" /></g><g transform="rotate(-45) scale(.89)"><path d="M-31 -40Q-43 -47 -48 -31Q-52 -22 -38 -16L-14 6L20 43Q29 53 40 41Q53 35 42 21L4 -11L-17 -29Z" fill="#e8d9aa" stroke="#18212d" stroke-width="4" /><path d="M-17 -20L25 31" fill="none" stroke="#91cde3" stroke-width="3" /></g></g></g></svg>
