<svg xmlns="http://www.w3.org/2000/svg" width="256" height="256" viewBox="0 0 256 256" role="img" aria-label="第十一天，你来到一座山下。"><title>第十一天，你来到一座山下。</title><desc>主角在高大山壁前停步，疲惫地仰头看山；路径通向岩壁底部的狭缝，后续的刻痕和岩层已处于同一位置。</desc><defs><clipPath id="opening-02-mountain-clip"><rect width="256" height="256" rx="22"/></clipPath></defs><g clip-path="url(#opening-02-mountain-clip)"><g data-scene-family="opening" data-story-key="map.story2"><path d="M0 0H256V256H0Z" fill="#18212d"/><path d="M0 95 19 84 46 93 66 65 88 75 118 38 143 44 159 18 177 29 194 13 218 34 240 31 256 49V221H0Z" fill="#263b49"/><path d="M74 121 87 81 118 38 143 44 159 18 166 0H239L256 24V218L118 235Z" fill="#3a515d" stroke="#101924" stroke-width="1" stroke-linecap="round" stroke-linejoin="round"/><path d="M166 0 159 18 164 51 149 75 154 103 128 129 127 192 116 220 151 218 169 158 164 105 180 76 171 47 187 27 184 0Z" fill="#4b626c"/><path d="M206 0 215 30 203 58 220 81 211 113 232 153 256 139V24L239 0Z" fill="#2d4350"/><path d="M149 75 136 71 127 86 128 107M191 43 192 59 181 77" fill="none" stroke="#73827e" stroke-width="1.3" stroke-linecap="round" stroke-linejoin="round" opacity="0.65"/><path d="M0 211 38 196 74 193 111 211 168 209 199 217 256 209V256H0Z" fill="#415862"/><defs><clipPath id="mountain-outcrop"><path d="M0 76 19 39 51 28 76 0 111 25 166 7 212 23 256 4V204L238 220 209 233 159 246 91 242 34 234 0 222Z" fill="#fff"/></clipPath></defs><g transform="translate(104 91) scale(.56)"><g clip-path="url(#mountain-outcrop)"><g data-layer="fixed-cliff" data-location="mountain-cleft"><path d="M0 0H256V227L226 235 192 225 149 231 105 222 64 233 26 224 0 231Z" fill="#394c57"/><path d="M0 0H100L80 39 101 69 73 101 86 128 62 166 74 195 34 228 0 231Z" fill="#2d414e"/><path d="M0 0H37L22 37 48 65 35 105 6 115 0 90Z" fill="#445c68"/><path d="M100 0H184L175 22 164 42 151 61 156 87 146 111 121 134 124 81 104 55 80 39Z" fill="#506570"/><path d="M110 0 104 31 127 57 124 81 132 101 120 124 136 104 142 82 132 51 142 24 145 0Z" fill="#425964"/><path d="M184 0H256V46L227 62 213 92 181 104 179 91 174 65 181 44 175 22Z" fill="#334650"/><path d="M227 62 256 46V177L230 188 213 166 222 143 201 121 213 92Z" fill="#425762"/><path d="M175 22 164 42 151 61 156 87 146 111 151 138 144 169 149 199 142 225 171 223 179 199 173 172 181 148 174 122 179 91 174 65 181 44Z" fill="#0e1925" stroke="#101924" stroke-width="1.1" stroke-linecap="round" stroke-linejoin="round" data-object="narrow-cleft"/><path d="M163 61 160 86 165 114 160 138 163 171 160 199 150 224 171 223 169 197 168 171 172 148 166 123 170 91 167 66Z" fill="#142531"/><path d="M175 22 164 42 151 61 156 87 146 111 151 138 144 169 149 199 142 225 135 226 143 198 137 169 143 138 139 110 149 86 144 61 157 40Z" fill="#74868b"/><path d="M175 22 181 44 174 65 179 91 174 122 181 148 173 172 179 199 171 223 182 224 189 201 183 172 190 148 183 121 189 91 184 65 188 43Z" fill="#536a74"/><path d="M180 116 188 137 186 149 180 164" fill="none" stroke="#8b9896" stroke-width="1.2" stroke-linecap="round" stroke-linejoin="round"/><path d="M73 101 101 103 121 134 113 158 125 178 118 210 91 218 74 195 62 166 86 128Z" fill="#3e5663"/><path d="M192 93 202 104 201 121 219 143 213 166 230 188 222 213 191 220 198 189 190 164 199 141 188 111Z" fill="#4b626e"/><path d="M57 28 66 45 60 67M25 123 47 133 45 150M103 144 98 166 108 177M222 31 208 51 209 66M228 111 241 128 238 147" fill="none" stroke="#73858c" stroke-width="1.25" stroke-linecap="round" stroke-linejoin="round" opacity="0.67"/><path d="M49 176 51 192 64 203M203 187 208 199 203 211" fill="none" stroke="#91a09e" stroke-width="1.1" stroke-linecap="round" stroke-linejoin="round" opacity="0.55"/><g data-object="incised-wedge" data-anchor="192,138"><path d="M189 130 196 132 190 146 187.8 144Z" fill="#263943" stroke="#101924" stroke-width="0.8" stroke-linecap="round" stroke-linejoin="round"/><path d="M189 130 196 132 192 134 188.6 144Z" fill="#817968"/><path d="M189.8 133 192.5 134 189.5 143Z" fill="#192934"/><path d="M190 146 196.8 133" fill="none" stroke="#9e9682" stroke-width="0.8" stroke-linecap="round" stroke-linejoin="round"/></g><path d="M0 225 35 217 70 224 103 217 139 225 150 221 173 221 185 217 221 225 256 214V256H0Z" fill="#415862"/><path d="M29 232 67 230 90 238 143 230 170 232 204 227 238 240 214 256H48Z" fill="#516873"/><path d="M145 221 158 211 175 209 179 215 171 223 151 226Z" fill="#2c414c"/><path d="M148 221 160 214 172 213" fill="none" stroke="#6e8086" stroke-width="1.1" stroke-linecap="round" stroke-linejoin="round"/><g transform="translate(121 232) rotate(5) scale(0.7)"><path d="M-8 0-3-6 7-4 10 2 0 5Z" fill="#536771" stroke="#101924" stroke-width="1" stroke-linecap="round" stroke-linejoin="round"/><path d="M-8 0-3-6 7-4 0 0Z" fill="#79878a"/></g><g transform="translate(188 229) rotate(13) scale(0.53)"><path d="M-8 0-3-6 7-4 10 2 0 5Z" fill="#536771" stroke="#101924" stroke-width="1" stroke-linecap="round" stroke-linejoin="round"/><path d="M-8 0-3-6 7-4 0 0Z" fill="#79878a"/></g><g transform="translate(73 222) rotate(-12) scale(0.48)"><path d="M-8 0-3-6 7-4 10 2 0 5Z" fill="#536771" stroke="#101924" stroke-width="1" stroke-linecap="round" stroke-linejoin="round"/><path d="M-8 0-3-6 7-4 0 0Z" fill="#79878a"/></g><g transform="translate(235 219) scale(0.9)"><path d="M0 0-2-12 4-21 2-7 7-14 5-3 12-8 9 1Z" fill="#4f695f" stroke="#101924" stroke-width="0.7" stroke-linecap="round" stroke-linejoin="round"/><path d="M1-2 3-12M6-2 8-7" fill="none" stroke="#7d8a76" stroke-width="0.8" stroke-linecap="round" stroke-linejoin="round"/></g></g></g></g><path d="M0 237 37 226 83 234 111 226 144 234 184 232 204 230 231 227 256 228V256H0Z" fill="#415862"/><path d="M0 209 20 198 63 186 93 194 125 194 158 209 185 216 162 231 121 231 96 223 75 219 40 232 14 256H0Z" fill="#526872"/><path d="M78 209 109 210 133 205 156 211 127 215 105 220Z" fill="#6c7d80" opacity="0.65"/><ellipse cx="64" cy="217" rx="25" ry="4" fill="#101924" opacity="0.45"/><g transform="translate(61 139) rotate(4) scale(0.7)" data-actor="young-cultivator" data-pose="arrive-and-look-up" data-scale="0.7"><path d="M-16.86 54.49 L-21.78 80.14 -24.81 101.63 -15.19 104.37 -6.22 83.86 -1.14 57.51Z" fill="#425b6e" stroke="#101924" stroke-width="1.35" stroke-linecap="round" stroke-linejoin="round"/><path d="M-9 56 L-14 82 -20 103 -15.19 104.37 -6.22 83.86 -1.14 57.51Z" fill="#2d4356"/><path d="M-16.86 54.49 L-21.78 80.14 -24.81 101.63" fill="none" stroke="#6c8391" stroke-width="1.05" stroke-linecap="round" stroke-linejoin="round"/><path d="M-24.81 101.63 L-15.19 104.37" fill="none" stroke="#b8beb1" stroke-width="1.8" stroke-linecap="round" stroke-linejoin="round"/><g transform="translate(-20 103) rotate(0)"><path d="M-5-9 5-9 7-1 15 3Q17 6 12 7H-6L-7 2Z" fill="#22313e" stroke="#101924" stroke-width="1.2" stroke-linecap="round" stroke-linejoin="round"/><path d="M-5 5H12" fill="none" stroke="#879698" stroke-width="1.4" stroke-linecap="round" stroke-linejoin="round"/><path d="M-4-7 4-7" fill="none" stroke="#84979c" stroke-width="1.7" stroke-linecap="round" stroke-linejoin="round"/></g><path d="M4.99 58.86 L16.02 78.91 30.66 98.48 39.34 93.52 29.98 71.09 19.01 51.14Z" fill="#425b6e" stroke="#101924" stroke-width="1.35" stroke-linecap="round" stroke-linejoin="round"/><path d="M12 55 L23 75 35 96 39.34 93.52 29.98 71.09 19.01 51.14Z" fill="#2d4356"/><path d="M4.99 58.86 L16.02 78.91 30.66 98.48" fill="none" stroke="#6c8391" stroke-width="1.05" stroke-linecap="round" stroke-linejoin="round"/><path d="M30.66 98.48 L39.34 93.52" fill="none" stroke="#b8beb1" stroke-width="1.8" stroke-linecap="round" stroke-linejoin="round"/><g transform="translate(35 96) rotate(0)"><path d="M-5-9 5-9 7-1 15 3Q17 6 12 7H-6L-7 2Z" fill="#22313e" stroke="#101924" stroke-width="1.2" stroke-linecap="round" stroke-linejoin="round"/><path d="M-5 5H12" fill="none" stroke="#879698" stroke-width="1.4" stroke-linecap="round" stroke-linejoin="round"/><path d="M-4-7 4-7" fill="none" stroke="#84979c" stroke-width="1.7" stroke-linecap="round" stroke-linejoin="round"/></g><path d="M-20.35 9.85 L-30.89 35.39 -13.23 52.67 -4.77 45.33 -13.11 32.61 -5.65 16.15Z" fill="#58768a" stroke="#101924" stroke-width="1.35" stroke-linecap="round" stroke-linejoin="round"/><path d="M-13 13 L-22 34 -9 49 -4.77 45.33 -13.11 32.61 -5.65 16.15Z" fill="#344e64"/><path d="M-20.35 9.85 L-30.89 35.39 -13.23 52.67" fill="none" stroke="#829aa5" stroke-width="1.05" stroke-linecap="round" stroke-linejoin="round"/><path d="M-13.23 52.67 L-4.77 45.33" fill="none" stroke="#b8beb1" stroke-width="1.8" stroke-linecap="round" stroke-linejoin="round"/><g transform="translate(-7.04 51.27) rotate(49.09)"><path d="M-5-4-1-6 3-9Q5-10 5-8L4-4 10-6Q13-6 11-3L5-1 11 0Q13 2 10 3L3 2 7 5Q7 7 4 5L-4 1Z" fill="#cdb297" stroke="#101924" stroke-width="1" stroke-linecap="round" stroke-linejoin="round"/><path d="M-1 0 3 1" fill="none" stroke="#aa8a76" stroke-width="0.7" stroke-linecap="round" stroke-linejoin="round"/></g><path d="M-15 35Q-19 48-28 70L-8 75 3 64 14 77 30 67Q23 47 14 33Z" fill="#58768a" stroke="#101924" stroke-width="1.6" stroke-linejoin="round" stroke-linecap="round" /><path d="M1 37-3 63-8 75-28 70-12 42ZM10 39 14 77 30 67 19 54Z" fill="#344e64" /><path d="M-9 43-15 66-6 67 3 47Z" fill="#78909c" /><path d="M3 43 3 62M17 44 22 63" fill="none" stroke="#829aa5" stroke-width="1.3" stroke-linejoin="round" stroke-linecap="round" /><path d="M-7 0-18 9-16 34-12 43 15 40 20 18 11 5 6 1Z" fill="#58768a" stroke="#101924" stroke-width="1.6" stroke-linejoin="round" stroke-linecap="round" /><path d="M-18 9-10 15-8 37-12 43-16 34Z" fill="#344e64" /><path d="M-5 0 1 15 7 2 13 6 1 29-12 6Z" fill="#d0c6ad" stroke="#101924" stroke-width="1" stroke-linejoin="round" stroke-linecap="round" /><path d="M-12 6 1 22 13 6 16 12 3 34-4 31 5 18Z" fill="#869b9f" /><path d="M-13 21-7 29M12 24 9 31" fill="none" stroke="#344e64" stroke-width="1.2" stroke-linejoin="round" stroke-linecap="round" /><path d="M-14 34 16 32 15 40-13 43Z" fill="#333c3e" stroke="#101924" stroke-width="1.1" stroke-linejoin="round" stroke-linecap="round" /><path d="M-13 35 15 33 15 36-13 39Z" fill="#bca16d" /><path d="M5 38 11 38 16 63 10 68 4 48Z" fill="#77684f" stroke="#101924" stroke-width="1" stroke-linejoin="round" stroke-linecap="round" /><path d="M5 38 8 38 12 60 10 63Z" fill="#bca16d" /><g transform="translate(0 -2) rotate(-20)"><path d="M-9-23Q-22-14-17 11L-21 28-12 21-5 11 3-11Z" fill="#192733" stroke="#101924" stroke-width="1.3" stroke-linejoin="round" stroke-linecap="round" /><path d="M-5-29Q-17-44-6-47 7-45 6-31Z" fill="#192733" stroke="#101924" stroke-width="1.4" stroke-linejoin="round" stroke-linecap="round" /><path d="M-9-40-4-44 2-41 2-34Z" fill="#354754" /><path d="M-12-29Q-1-34 9-29L8-25-12-25Z" fill="#bca16d" /><path d="M6-28Q20-30 29-21L20-23 28-12Q17-15 9-24Z" fill="#77684f" /><path d="M-7-7 7-7 8 8-7 9Z" fill="#aa8a76" stroke="#101924" stroke-width="1.2" stroke-linejoin="round" stroke-linecap="round" /><path d="M-13-24Q3-35 15-21L15-12 19-6 15-4 12 3 4 6-9-2-14-13Z" fill="#cdb297" stroke="#101924" stroke-width="1.35" stroke-linejoin="round" stroke-linecap="round" /><path d="M-13-19-4-17-2-2 5 5-6 2-13-5Z" fill="#aa8a76" /><path d="M-15-8Q-20-28-6-33 11-37 17-24L10-15 6-24-3-13-7-9-8-19-12-7-12 8-16 11Z" fill="#192733" stroke="#101924" stroke-width="1.4" stroke-linejoin="round" stroke-linecap="round" /><path d="M-12-25Q-4-33 10-29L1-25-8-16Z" fill="#354754" /><path d="M9-11 13-10" fill="none" stroke="#70675e" stroke-width="1" stroke-linejoin="round" stroke-linecap="round" opacity=".5" /></g><path d="M5.46 16.61 L15.94 33 24.66 49.69 35.34 46.31 32.06 25 18.54 7.39Z" fill="#58768a" stroke="#101924" stroke-width="1.35" stroke-linecap="round" stroke-linejoin="round"/><path d="M12 12 L24 29 30 48 35.34 46.31 32.06 25 18.54 7.39Z" fill="#344e64"/><path d="M5.46 16.61 L15.94 33 24.66 49.69" fill="none" stroke="#829aa5" stroke-width="1.05" stroke-linecap="round" stroke-linejoin="round"/><path d="M24.66 49.69 L35.34 46.31" fill="none" stroke="#b8beb1" stroke-width="1.8" stroke-linecap="round" stroke-linejoin="round"/><g transform="translate(30.90 50.86) rotate(72.47)"><path d="M-5-4Q0-6 5-3L9-1Q11 1 8 2H3Q7 4 4 5L-2 3-5 1Z" fill="#cdb297" stroke="#101924" stroke-width="1" stroke-linecap="round" stroke-linejoin="round"/><path d="M-1 0 3 1" fill="none" stroke="#aa8a76" stroke-width="0.7" stroke-linecap="round" stroke-linejoin="round"/></g></g><g transform="translate(99 224) rotate(-9) scale(0.62)"><path d="M-8 0-3-6 7-4 10 2 0 5Z" fill="#536771" stroke="#101924" stroke-width="1" stroke-linecap="round" stroke-linejoin="round"/><path d="M-8 0-3-6 7-4 0 0Z" fill="#79878a"/></g><g transform="translate(31 222) rotate(-10) scale(0.44)"><path d="M-8 0-3-6 7-4 10 2 0 5Z" fill="#536771" stroke="#101924" stroke-width="1" stroke-linecap="round" stroke-linejoin="round"/><path d="M-8 0-3-6 7-4 0 0Z" fill="#79878a"/></g><path d="M0 235 19 231 44 237 61 256H0Z" fill="#293f4a" stroke="#101924" stroke-width="1.1" stroke-linecap="round" stroke-linejoin="round"/><path d="M0 235 19 231 44 237 23 242Z" fill="#63777d"/><path d="M207 237 229 224 256 224V256H192Z" fill="#2d444f" stroke="#101924" stroke-width="1.1" stroke-linecap="round" stroke-linejoin="round"/><path d="M207 237 229 224 256 224 240 238Z" fill="#5a707a"/><g transform="translate(239 234) scale(0.75)"><path d="M0 0-2-12 4-21 2-7 7-14 5-3 12-8 9 1Z" fill="#4f695f" stroke="#101924" stroke-width="0.7" stroke-linecap="round" stroke-linejoin="round"/><path d="M1-2 3-12M6-2 8-7" fill="none" stroke="#7d8a76" stroke-width="0.8" stroke-linecap="round" stroke-linejoin="round"/></g></g><rect x=".75" y=".75" width="254.5" height="254.5" rx="21.25" fill="none" stroke="#576873" stroke-width="1.5" opacity=".4"/></g></svg>
