<svg xmlns="http://www.w3.org/2000/svg" width="256" height="256" viewBox="0 0 256 256" fill="none"><g transform="translate(128 128)" stroke-linecap="round" stroke-linejoin="round"><path d="M37 42A81 81 0 0 1 -62 52M-67 -47A81 81 0 0 1 14 -82" fill="none" stroke="#ad8d67" stroke-width="2.1" opacity=".68"/><circle cx="-80" cy="-30" r="2.7" fill="#eed7a5" opacity=".75"/><circle cx="83" cy="29" r="2.7" fill="#eed7a5" opacity=".75"/><circle cx="-38" cy="74" r="2.7" fill="#eed7a5" opacity=".75"/><g transform="translate(0 13) scale(0.68)" opacity=".87"><path d="M-56 37L-18 -40L4 -4L22 -33L57 37Z" fill="#ad8d67" stroke="#18212d" stroke-width="4" /><path d="M-28 -19L-18 -40L-3 -16L-15 -22Z" fill="#eed7a5" stroke="#18212d" stroke-width="2" /><path d="M19 -26L22 -33L43 6L31 -3Z" fill="#eed7a5" stroke="#18212d" stroke-width="2" /><path d="M-43 36H48" fill="none" stroke="#eed7a5" stroke-width="2" /></g><g transform="translate(0 7) scale(1.22)"><path d="M0 -50Q22 -38 45 -36L42 8Q36 38 0 52Q-36 38 -42 8L-45 -36Q-22 -38 0 -50Z" fill="#ad8d67" stroke="#18212d" stroke-width="4" /><path d="M0 -41L0 40M-34 -27Q0 -28 34 -27M-32 11Q0 25 32 11" fill="none" stroke="#eed7a5" stroke-width="3" /></g></g></svg>
