<svg xmlns="http://www.w3.org/2000/svg" width="256" height="256" viewBox="0 0 256 256" role="img" aria-label="同一矿脉前主角双手放膝静坐，数股柔和青绿气息缓缓汇向胸口与眉心"><title>同一矿脉前主角双手放膝静坐，数股柔和青绿气息缓缓汇向胸口与眉心</title><defs><clipPath id="round"><rect width="256" height="256" rx="22"/></clipPath></defs><g clip-path="url(#round)"><g data-scene-family="vein"><g data-layer="fixed-scene"><rect width="256" height="256" fill="#18212d"/><path d="M0 0H256V64L226 47 205 66 172 36 145 30 119 47 81 36 39 66 0 91Z" fill="#293945"/><path d="M0 0H77L62 22 35 26 24 58 0 77ZM188 0H256V102L232 75 218 38 192 25Z" fill="#354651"/><path d="M0 79 25 60 40 85 32 124 46 176 26 211H0ZM256 78 231 94 221 141 239 204 256 210Z" fill="#2c3d49"/><path d="M0 205 51 177 115 185 181 172 233 186 256 216V256H0Z" fill="#344651"/><path d="M29 202 76 193 116 211 167 201 219 219 198 241 75 238Z" fill="#3c4e58"/><path d="M6 90 23 82 29 94M236 99 231 126 240 149" fill="none" stroke="#50616a" stroke-width="1.3" stroke-linecap="round" stroke-linejoin="round"/><path d="M89 36 124 27 157 42 198 28 229 53 242 91 232 122 244 165 230 202 201 220 145 222 105 207 80 169 87 127 74 85Z" fill="#53666a" stroke="#101924" stroke-width="1.6" stroke-linecap="round" stroke-linejoin="round"/><path d="M89 36 124 27 157 42 198 28 229 53 204 65 163 58 133 68 97 54 79 77Z" fill="#6a7a79"/><path d="M86 87 119 77 157 100 192 87 234 103 232 122 199 110 163 123 117 96 85 110Z" fill="#3b515c"/><path d="M88 138 116 124 155 143 197 135 240 153 244 165 203 157 162 164 116 144 86 158Z" fill="#76857d"/><path d="M98 178 130 161 166 185 207 174 235 187 230 202 201 220 181 209 145 214 109 201Z" fill="#405963"/><path d="M98 50 114 56 124 71M198 48 182 67 193 85M226 111 214 124 218 140M100 151 108 172 99 184M201 183 190 200 194 217" fill="none" stroke="#263e4a" stroke-width="1.3" stroke-linecap="round" stroke-linejoin="round"/><path d="M118 57 130 58 134 82 146 97 146 116 163 129 171 151 171 168 190 179 195 194 214 200 209 208 184 199 176 185 157 176 160 151 151 138 134 124 137 106 125 89Z" fill="#3c6b62"/><path d="M155 130 173 119 185 120 199 108 207 113 189 128 176 128 163 141Z" fill="#466f64"/><path d="M122 62 128 84 141 103 140 119 158 135 165 155 164 172 183 185 190 198 211 203" fill="none" stroke="#799984" stroke-width="1.3" stroke-linecap="round" stroke-linejoin="round" opacity=".6"/><g transform="translate(127 81) rotate(-20) scale(0.43 0.43)"><path d="M-12 3-10-14-2-27 10-19 12 7 2 13Z" fill="#709e91" stroke="#101924" stroke-width="1.35" stroke-linecap="round" stroke-linejoin="round"/><path d="M-10-14-2-27 2-6 2 13-12 3Z" fill="#97baaa" fill-opacity=".72"/><path d="M2-6 10-19 12 7 2 13Z" fill="#426f69"/><path d="M-5-17 2-10 9-12M2-10 0 10" fill="none" stroke="#bed2b8" stroke-width="0.85" stroke-linecap="round" stroke-linejoin="round" opacity=".6"/></g><g transform="translate(139 108) rotate(12) scale(0.41 0.41)"><path d="M-10 3-6-20 3-31 12-12 10 8-2 15Z" fill="#709e91" stroke="#101924" stroke-width="1.35" stroke-linecap="round" stroke-linejoin="round"/><path d="M-6-20 3-31 2-10-2 15-10 3Z" fill="#97baaa" fill-opacity=".72"/><path d="M2-10 12-12 10 8-2 15Z" fill="#426f69"/><path d="M-5-17 2-10 9-12M2-10 0 10" fill="none" stroke="#bed2b8" stroke-width="0.85" stroke-linecap="round" stroke-linejoin="round" opacity=".6"/></g><g transform="translate(149 127) rotate(-18) scale(0.36 0.36)"><path d="M-12 3-10-14-2-27 10-19 12 7 2 13Z" fill="#709e91" stroke="#101924" stroke-width="1.35" stroke-linecap="round" stroke-linejoin="round"/><path d="M-10-14-2-27 2-6 2 13-12 3Z" fill="#97baaa" fill-opacity=".72"/><path d="M2-6 10-19 12 7 2 13Z" fill="#426f69"/><path d="M-5-17 2-10 9-12M2-10 0 10" fill="none" stroke="#bed2b8" stroke-width="0.85" stroke-linecap="round" stroke-linejoin="round" opacity=".6"/></g><g transform="translate(161 147) rotate(8) scale(0.47 0.47)"><path d="M-12 3-10-14-2-27 10-19 12 7 2 13Z" fill="#709e91" stroke="#101924" stroke-width="1.35" stroke-linecap="round" stroke-linejoin="round"/><path d="M-10-14-2-27 2-6 2 13-12 3Z" fill="#97baaa" fill-opacity=".72"/><path d="M2-6 10-19 12 7 2 13Z" fill="#426f69"/><path d="M-5-17 2-10 9-12M2-10 0 10" fill="none" stroke="#bed2b8" stroke-width="0.85" stroke-linecap="round" stroke-linejoin="round" opacity=".6"/></g><g transform="translate(168 170) rotate(-24) scale(0.37 0.37)"><path d="M-10 3-6-20 3-31 12-12 10 8-2 15Z" fill="#709e91" stroke="#101924" stroke-width="1.35" stroke-linecap="round" stroke-linejoin="round"/><path d="M-6-20 3-31 2-10-2 15-10 3Z" fill="#97baaa" fill-opacity=".72"/><path d="M2-10 12-12 10 8-2 15Z" fill="#426f69"/><path d="M-5-17 2-10 9-12M2-10 0 10" fill="none" stroke="#bed2b8" stroke-width="0.85" stroke-linecap="round" stroke-linejoin="round" opacity=".6"/></g><g transform="translate(187 190) rotate(36) scale(0.42 0.42)"><path d="M-12 3-10-14-2-27 10-19 12 7 2 13Z" fill="#709e91" stroke="#101924" stroke-width="1.35" stroke-linecap="round" stroke-linejoin="round"/><path d="M-10-14-2-27 2-6 2 13-12 3Z" fill="#97baaa" fill-opacity=".72"/><path d="M2-6 10-19 12 7 2 13Z" fill="#426f69"/><path d="M-5-17 2-10 9-12M2-10 0 10" fill="none" stroke="#bed2b8" stroke-width="0.85" stroke-linecap="round" stroke-linejoin="round" opacity=".6"/></g><g transform="translate(204 199) rotate(48) scale(0.29 0.29)"><path d="M-10 3-6-20 3-31 12-12 10 8-2 15Z" fill="#709e91" stroke="#101924" stroke-width="1.35" stroke-linecap="round" stroke-linejoin="round"/><path d="M-6-20 3-31 2-10-2 15-10 3Z" fill="#97baaa" fill-opacity=".72"/><path d="M2-10 12-12 10 8-2 15Z" fill="#426f69"/><path d="M-5-17 2-10 9-12M2-10 0 10" fill="none" stroke="#bed2b8" stroke-width="0.85" stroke-linecap="round" stroke-linejoin="round" opacity=".6"/></g><g transform="translate(182 123) rotate(66) scale(0.28 0.28)"><path d="M-12 3-10-14-2-27 10-19 12 7 2 13Z" fill="#709e91" stroke="#101924" stroke-width="1.35" stroke-linecap="round" stroke-linejoin="round"/><path d="M-10-14-2-27 2-6 2 13-12 3Z" fill="#97baaa" fill-opacity=".72"/><path d="M2-6 10-19 12 7 2 13Z" fill="#426f69"/><path d="M-5-17 2-10 9-12M2-10 0 10" fill="none" stroke="#bed2b8" stroke-width="0.85" stroke-linecap="round" stroke-linejoin="round" opacity=".6"/></g><g transform="translate(201 111) rotate(41) scale(0.24 0.24)"><path d="M-10 3-6-20 3-31 12-12 10 8-2 15Z" fill="#709e91" stroke="#101924" stroke-width="1.35" stroke-linecap="round" stroke-linejoin="round"/><path d="M-6-20 3-31 2-10-2 15-10 3Z" fill="#97baaa" fill-opacity=".72"/><path d="M2-10 12-12 10 8-2 15Z" fill="#426f69"/><path d="M-5-17 2-10 9-12M2-10 0 10" fill="none" stroke="#bed2b8" stroke-width="0.85" stroke-linecap="round" stroke-linejoin="round" opacity=".6"/></g><path d="M115 88 127 84 135 91 129 96 118 94ZM151 152 158 149 169 154 171 160 160 158ZM177 199 187 193 197 200 192 205Z" fill="#697d77" stroke="#101924" stroke-width="0.8" stroke-linecap="round" stroke-linejoin="round"/><g transform="translate(118 223) rotate(0) scale(0.75 0.75)"><path d="M-8 0-3-6 7-4 10 2 0 5Z" fill="#66747a" stroke="#101924" stroke-width="1" stroke-linecap="round" stroke-linejoin="round"/><path d="M-8 0-3-6 7-4 0 0Z" fill="#82908f"/></g><g transform="translate(164 228) rotate(0) scale(0.7 0.7)"><path d="M-8 0-3-6 7-4 10 2 0 5Z" fill="#66747a" stroke="#101924" stroke-width="1" stroke-linecap="round" stroke-linejoin="round"/><path d="M-8 0-3-6 7-4 0 0Z" fill="#82908f"/></g><g transform="translate(211 229) rotate(0) scale(0.54 0.54)"><path d="M-8 0-3-6 7-4 10 2 0 5Z" fill="#66747a" stroke="#101924" stroke-width="1" stroke-linecap="round" stroke-linejoin="round"/><path d="M-8 0-3-6 7-4 0 0Z" fill="#82908f"/></g><g transform="translate(87 217) rotate(0) scale(0.5 0.5)"><path d="M-8 0-3-6 7-4 10 2 0 5Z" fill="#66747a" stroke="#101924" stroke-width="1" stroke-linecap="round" stroke-linejoin="round"/><path d="M-8 0-3-6 7-4 0 0Z" fill="#82908f"/></g><path d="M102 218 108 211 121 217 123 225 112 228Z" fill="#7b8981" stroke="#101924" stroke-width="1" stroke-linecap="round" stroke-linejoin="round"/></g><g transform="translate(78 166) rotate(0) scale(0.76 0.76)" data-actor="young-cultivator" data-pose="seated" data-scale="0.76"><ellipse cx="0" cy="63" rx="46" ry="8" fill="#101924" opacity=".6" /><path d="M-13 27Q-43 34-49 53-43 66-15 65L11 59 38 65Q60 59 44 45L16 27Z" fill="#58768a" stroke="#101924" stroke-width="1.8" stroke-linejoin="round" stroke-linecap="round" /><path d="M-44 49Q-27 48-4 58L-14 65Q-42 68-48 55ZM39 44 14 55 25 60 45 58Z" fill="#344e64" /><path d="M-7 0-20 8-21 32-8 49 13 46 24 31 18 10 7 1Z" fill="#58768a" stroke="#101924" stroke-width="1.6" stroke-linejoin="round" stroke-linecap="round" /><path d="M-7 0 0 16 8 1 14 5 2 31-14 6Z" fill="#d0c6ad" /><path d="M-15 8 1 23 16 6 17 13 1 36Z" fill="#88a0a4" /><path d="M-15 35 19 33 20 40-11 44Z" fill="#354346" stroke="#101924" stroke-width="1" stroke-linejoin="round" stroke-linecap="round" /><path d="M-13 37 18 35" fill="none" stroke="#bca16d" stroke-width="2.5" stroke-linejoin="round" stroke-linecap="round" /><path d="M2 42 11 41 12 56 3 60Z" fill="#77684f" /><path d="M-23.31 8.09 Q-40.22 27.14 -38.75 45.23 L-27.25 46.77 Q-21.78 34.86 -10.69 17.91Z" fill="#58768a" stroke="#101924" stroke-width="1.35" stroke-linecap="round" stroke-linejoin="round"/><path d="M-17 13 Q-31 31 -33 46 L-27.25 46.77 Q-21.78 34.86 -10.69 17.91Z" fill="#344e64"/><path d="M-23.31 8.09 Q-40.22 27.14 -38.75 45.23" fill="none" stroke="#829aa5" stroke-width="1.1" stroke-linecap="round" stroke-linejoin="round"/><path d="M-38.75 45.23 L-27.25 46.77" fill="none" stroke="#b8beb1" stroke-width="1.8" stroke-linecap="round" stroke-linejoin="round"/><g transform="translate(-33.4 48.97) rotate(97.59) scale(1 1)"><path d="M-5-4Q0-6 5-3L9-1Q11 1 8 2H3Q7 4 4 5L-2 3-5 1Z" fill="#cdb297" stroke="#101924" stroke-width="1" stroke-linecap="round" stroke-linejoin="round"/><path d="M-1 0 3 1" fill="none" stroke="#aa8a76" stroke-width="0.7" stroke-linecap="round" stroke-linejoin="round"/></g><path d="M10.24 17.27 Q19.74 35.78 26.33 47.22 L37.67 44.78 Q38.26 28.22 23.76 8.73Z" fill="#58768a" stroke="#101924" stroke-width="1.35" stroke-linecap="round" stroke-linejoin="round"/><path d="M17 13 Q29 32 32 46 L37.67 44.78 Q38.26 28.22 23.76 8.73Z" fill="#344e64"/><path d="M10.24 17.27 Q19.74 35.78 26.33 47.22" fill="none" stroke="#829aa5" stroke-width="1.1" stroke-linecap="round" stroke-linejoin="round"/><path d="M26.33 47.22 L37.67 44.78" fill="none" stroke="#b8beb1" stroke-width="1.8" stroke-linecap="round" stroke-linejoin="round"/><g transform="translate(32.63 48.93) rotate(77.91) scale(1 1)"><path d="M-5-4Q0-6 5-3L9-1Q11 1 8 2H3Q7 4 4 5L-2 3-5 1Z" fill="#cdb297" stroke="#101924" stroke-width="1" stroke-linecap="round" stroke-linejoin="round"/><path d="M-1 0 3 1" fill="none" stroke="#aa8a76" stroke-width="0.7" stroke-linecap="round" stroke-linejoin="round"/></g><g transform="translate(0 -2) rotate(0) scale(1 1)"><path d="M-9-23Q-22-14-17 11L-21 28-12 21-5 11 3-11Z" fill="#192733" stroke="#101924" stroke-width="1.3" stroke-linejoin="round" stroke-linecap="round" /><path d="M-5-29Q-17-44-6-47 7-45 6-31Z" fill="#192733" stroke="#101924" stroke-width="1.4" stroke-linejoin="round" stroke-linecap="round" /><path d="M-9-40-4-44 2-41 2-34Z" fill="#354754" /><path d="M-12-29Q-1-34 9-29L8-25-12-25Z" fill="#bca16d" /><path d="M6-28Q20-30 29-21L20-23 28-12Q17-15 9-24Z" fill="#77684f" /><path d="M-7-7 7-7 8 8-7 9Z" fill="#aa8a76" stroke="#101924" stroke-width="1.2" stroke-linejoin="round" stroke-linecap="round" /><path d="M-13-24Q3-35 15-21L15-12 19-6 15-4 12 3 4 6-9-2-14-13Z" fill="#cdb297" stroke="#101924" stroke-width="1.35" stroke-linejoin="round" stroke-linecap="round" /><path d="M-13-19-4-17-2-2 5 5-6 2-13-5Z" fill="#aa8a76" /><path d="M-15-8Q-20-28-6-33 11-37 17-24L10-15 6-24-3-13-7-9-8-19-12-7-12 8-16 11Z" fill="#192733" stroke="#101924" stroke-width="1.4" stroke-linejoin="round" stroke-linecap="round" /><path d="M-12-25Q-4-33 10-29L1-25-8-16Z" fill="#354754" /><path d="M9-11 13-10" fill="none" stroke="#70675e" stroke-width="1" stroke-linejoin="round" stroke-linecap="round" opacity=".5" /></g><path d="M-28 55 1 60 28 52" fill="none" stroke="#829aa5" stroke-width="1.5" stroke-linejoin="round" stroke-linecap="round" /><path d="M-11 58Q-3 52 5 54L13 61 3 65Z" fill="#d0c6ad" stroke="#101924" stroke-width="1" stroke-linejoin="round" stroke-linecap="round" /></g><path d="M128 80Q108 101 87 147M160 143Q127 162 93 173M187 187Q139 205 95 181" fill="none" stroke="#8fb7a5" stroke-width="0.85" stroke-linecap="round" stroke-linejoin="round" opacity=".42"/><path d="M128 78Q105 110 87 147Q98 114 125 77Z" fill="#86afa2" fill-opacity=".06"/><path d="M0 238 24 228 48 237 72 256H0ZM220 256 238 236 256 231V256Z" fill="#22333e"/><path d="M6 241 22 236 37 242M245 243 254 239" fill="none" stroke="#465b65" stroke-width="1.2" stroke-linecap="round" stroke-linejoin="round"/></g><rect x=".75" y=".75" width="254.5" height="254.5" rx="21.25" fill="none" stroke="#576873" stroke-width="1.5" opacity=".4"/></g></svg>