<svg xmlns="http://www.w3.org/2000/svg" width="256" height="256" viewBox="0 0 256 256" fill="none"><g transform="translate(128 128)" stroke-linecap="round" stroke-linejoin="round"><path d="M37 42A81 81 0 0 1 -62 52M-67 -47A81 81 0 0 1 14 -82" fill="none" stroke="#a78dd9" stroke-width="2.1" opacity=".68"/><circle cx="-80" cy="-30" r="2.7" fill="#eedcff" opacity=".75"/><circle cx="83" cy="29" r="2.7" fill="#eedcff" opacity=".75"/><circle cx="-38" cy="74" r="2.7" fill="#eedcff" opacity=".75"/><g transform="translate(34 -3) scale(0.63)" opacity=".87"><path d="M5 -55L-25 -3L-3 -2L-12 50L32 -16L8 -16L25 -55Z" fill="#a78dd9" stroke="#18212d" stroke-width="4" /><path d="M5 -48L-14 -9L7 -9L-1 31" fill="none" stroke="#eedcff" stroke-width="3" /></g><g transform="translate(-19 1) scale(1.22)"><path d="M0 -54C8 -27 35 -3 31 19C27 41 12 48 0 48C-12 48 -27 41 -31 19C-35 -3 -8 -27 0 -54Z" fill="#a78dd9" stroke="#18212d" stroke-width="3" /><path d="M-13 9Q-20 28 -7 34" fill="none" stroke="#eedcff" stroke-width="4" /></g></g></svg>
