<svg xmlns="http://www.w3.org/2000/svg" width="256" height="256" viewBox="0 0 256 256" fill="none"><g transform="translate(128 128)" stroke-linecap="round" stroke-linejoin="round"><path d="M37 42A81 81 0 0 1 -62 52M-67 -47A81 81 0 0 1 14 -82" fill="none" stroke="#cb664c" stroke-width="2.1" opacity=".68"/><circle cx="-80" cy="-30" r="2.7" fill="#ffd397" opacity=".75"/><circle cx="83" cy="29" r="2.7" fill="#ffd397" opacity=".75"/><circle cx="-38" cy="74" r="2.7" fill="#ffd397" opacity=".75"/><g transform="translate(37 -17) scale(0.77)" opacity=".87"><path d="M0 -57Q10 -42 6 -23Q24 -44 33 -17Q44 3 36 27Q27 53 0 54Q-30 53 -38 24Q-42 -1 -20 -22Q-19 -6 -9 -7Q-14 -35 0 -57Z" fill="#cb664c" stroke="#18212d" stroke-width="3.6" /><path d="M0 -19Q18 -4 14 12Q23 6 25 21Q25 36 9 43Q-13 48 -19 29Q-25 13 -5 3Q-7 16 -1 16Q6 6 0 -19Z" fill="#ffd397" stroke="#18212d" stroke-width="2.5" /></g><g transform="translate(-22 9) scale(1.22)"><path d="M0 -57Q10 -42 6 -23Q24 -44 33 -17Q44 3 36 27Q27 53 0 54Q-30 53 -38 24Q-42 -1 -20 -22Q-19 -6 -9 -7Q-14 -35 0 -57Z" fill="#cb664c" stroke="#18212d" stroke-width="3.6" /><path d="M0 -19Q18 -4 14 12Q23 6 25 21Q25 36 9 43Q-13 48 -19 29Q-25 13 -5 3Q-7 16 -1 16Q6 6 0 -19Z" fill="#ffd397" stroke="#18212d" stroke-width="2.5" /></g></g></svg>
