<svg xmlns="http://www.w3.org/2000/svg" width="256" height="256" viewBox="0 0 256 256" role="img" aria-label="袋口表面显出紧贴布料的暗红封印和微裂光，主角收手后避"><title>袋口表面显出紧贴布料的暗红封印和微裂光，主角收手后避</title><defs><clipPath id="round"><rect width="256" height="256" rx="22"/></clipPath></defs><g clip-path="url(#round)"><g data-scene-family="corpse"><g data-layer="fixed-scene"><rect width="256" height="256" fill="#18212d"/><path d="M0 0H256V64L226 47 205 66 172 36 145 30 119 47 81 36 39 66 0 91Z" fill="#293945"/><path d="M0 0H77L62 22 35 26 24 58 0 77ZM188 0H256V102L232 75 218 38 192 25Z" fill="#354651"/><path d="M0 79 25 60 40 85 32 124 46 176 26 211H0ZM256 78 231 94 221 141 239 204 256 210Z" fill="#2c3d49"/><path d="M0 205 51 177 115 185 181 172 233 186 256 216V256H0Z" fill="#344651"/><path d="M29 202 76 193 116 211 167 201 219 219 198 241 75 238Z" fill="#3c4e58"/><path d="M6 90 23 82 29 94M236 99 231 126 240 149" fill="none" stroke="#50616a" stroke-width="1.3" stroke-linecap="round" stroke-linejoin="round"/><path d="M19 185 71 173 139 188 194 178 239 204 223 236 44 238 14 215Z" fill="#40535d"/><g transform="translate(161 218) rotate(4) scale(-0.78 0.78)" data-actor="fallen-cultivator" data-anchor="161,218"><ellipse cx="0" cy="17" rx="83" ry="11" fill="#101924" opacity=".6" /><path d="M-49-3-77-4-87 6-81 14-55 10-31 18 14 14 33 1 10-12-16-15Z" fill="#435c68" stroke="#101924" stroke-width="1.6" stroke-linejoin="round" stroke-linecap="round" /><path d="M-78-3-67 0-68 9-87 12-92 8Z" fill="#233341" stroke="#101924" stroke-width="1.2" stroke-linejoin="round" stroke-linecap="round" /><path d="M-62 6-36 8-39 17-66 17-73 12Z" fill="#2b404f" stroke="#101924" stroke-width="1.2" stroke-linejoin="round" stroke-linecap="round" /><path d="M-32-8-8-18 23-10 39 0 25 16-7 17-15 10-26 13-30 5-44 7Z" fill="#665a70" stroke="#101924" stroke-width="1.6" stroke-linejoin="round" stroke-linecap="round" /><path d="M-28-3-13 2-6 14 21 15 32 7 10 4-2-11Z" fill="#423d55" /><path d="M14-12 29-5 23 7 9 12-1 6Z" fill="#b5b4a6" stroke="#101924" stroke-width="1" stroke-linejoin="round" stroke-linecap="round" /><path d="M10-11 16-5 9 2-9 9-14 2Z" fill="#8b7c94" /><path d="M-11-13-6-9-9 0-3 8-8 12-16-1Z" fill="#897857" stroke="#101924" stroke-width="1" stroke-linejoin="round" stroke-linecap="round" /><path d="M-1-9 4-10 8-5 4 1-2-3Z" fill="#bca16d" /><path d="M30-8Q39-23 55-17 68-9 65 4 60 16 45 15L32 8Z" fill="#ad9d8b" stroke="#101924" stroke-width="1.4" stroke-linejoin="round" stroke-linecap="round" /><path d="M31-7Q27-20 43-25L53-22 61-24 69-12 65 6 61-5 52-13 36-10 33 4Z" fill="#202f3c" stroke="#101924" stroke-width="1.5" stroke-linejoin="round" stroke-linecap="round" /><path d="M50 1 58 3" fill="none" stroke="#686b68" stroke-width="1.4" stroke-linejoin="round" stroke-linecap="round" /><path d="M-30 1-26 5-23 0M-17 11-12 8M0-11 5-5" fill="none" stroke="#283742" stroke-width="1.3" stroke-linejoin="round" stroke-linecap="round" /></g><path d="M144 215Q141 201 150 189L156 184 161 189 153 198 154 215Z" fill="#697789" stroke="#101924" stroke-width="1.1" stroke-linecap="round" stroke-linejoin="round"/><path d="M154 185 158 179 165 180 169 184 163 187 158 186Z" fill="#b39f8d" stroke="#101924" stroke-width="0.8" stroke-linecap="round" stroke-linejoin="round"/><g transform="translate(207 225) rotate(0) scale(0.55 0.55)"><path d="M-8 0-3-6 7-4 10 2 0 5Z" fill="#66747a" stroke="#101924" stroke-width="1" stroke-linecap="round" stroke-linejoin="round"/><path d="M-8 0-3-6 7-4 0 0Z" fill="#82908f"/></g><g transform="translate(61 217) rotate(0) scale(0.45 0.45)"><path d="M-8 0-3-6 7-4 10 2 0 5Z" fill="#66747a" stroke="#101924" stroke-width="1" stroke-linecap="round" stroke-linejoin="round"/><path d="M-8 0-3-6 7-4 0 0Z" fill="#82908f"/></g><path d="M24 201 38 194 50 199M96 230 103 234 115 231" fill="none" stroke="#65767c" stroke-width="1.1" stroke-linecap="round" stroke-linejoin="round"/></g><g transform="translate(81 114) rotate(-13) scale(0.74 0.74)" data-actor="young-cultivator" data-pose="recoil" data-scale="0.74"><path d="M-15.27 51.03 Q-35.21 76.53 -38.87 104.88 L-29.13 107.12 Q-20.79 83.47 -2.73 60.97Z" fill="#425b6e" stroke="#101924" stroke-width="1.35" stroke-linecap="round" stroke-linejoin="round"/><path d="M-9 56 Q-28 80 -34 106 L-29.13 107.12 Q-20.79 83.47 -2.73 60.97Z" fill="#2d4356"/><path d="M-15.27 51.03 Q-35.21 76.53 -38.87 104.88" fill="none" stroke="#6c8391" stroke-width="1.1" stroke-linecap="round" stroke-linejoin="round"/><path d="M-38.87 104.88 L-29.13 107.12" fill="none" stroke="#b8beb1" stroke-width="1.8" stroke-linecap="round" stroke-linejoin="round"/><g transform="translate(-34 106) rotate(0) scale(1 1)"><path d="M-5-9 5-9 7-1 15 3Q17 6 12 7H-6L-7 2Z" fill="#22313e" stroke="#101924" stroke-width="1.2" stroke-linecap="round" stroke-linejoin="round"/><path d="M-5 5H12" fill="none" stroke="#879698" stroke-width="1.4" stroke-linecap="round" stroke-linejoin="round"/><path d="M-4-7 4-7" fill="none" stroke="#84979c" stroke-width="1.7" stroke-linecap="round" stroke-linejoin="round"/></g><path d="M5.2 59.21 Q17.88 79.64 34.38 111.9 L43.62 108.1 Q32.12 72.36 18.8 50.79Z" fill="#425b6e" stroke="#101924" stroke-width="1.35" stroke-linecap="round" stroke-linejoin="round"/><path d="M12 55 Q25 76 39 110 L43.62 108.1 Q32.12 72.36 18.8 50.79Z" fill="#2d4356"/><path d="M5.2 59.21 Q17.88 79.64 34.38 111.9" fill="none" stroke="#6c8391" stroke-width="1.1" stroke-linecap="round" stroke-linejoin="round"/><path d="M34.38 111.9 L43.62 108.1" fill="none" stroke="#b8beb1" stroke-width="1.8" stroke-linecap="round" stroke-linejoin="round"/><g transform="translate(39 110) rotate(0) scale(1 1)"><path d="M-5-9 5-9 7-1 15 3Q17 6 12 7H-6L-7 2Z" fill="#22313e" stroke="#101924" stroke-width="1.2" stroke-linecap="round" stroke-linejoin="round"/><path d="M-5 5H12" fill="none" stroke="#879698" stroke-width="1.4" stroke-linecap="round" stroke-linejoin="round"/><path d="M-4-7 4-7" fill="none" stroke="#84979c" stroke-width="1.7" stroke-linecap="round" stroke-linejoin="round"/></g><path d="M-18 6.75 Q-26.79 21.16 -17.76 10.49 L-28.24 5.51 Q-39.21 36.84 -8 19.25Z" fill="#58768a" stroke="#101924" stroke-width="1.35" stroke-linecap="round" stroke-linejoin="round"/><path d="M-13 13 Q-33 29 -23 8 L-28.24 5.51 Q-39.21 36.84 -8 19.25Z" fill="#344e64"/><path d="M-18 6.75 Q-26.79 21.16 -17.76 10.49" fill="none" stroke="#829aa5" stroke-width="1.1" stroke-linecap="round" stroke-linejoin="round"/><path d="M-17.76 10.49 L-28.24 5.51" fill="none" stroke="#b8beb1" stroke-width="1.8" stroke-linecap="round" stroke-linejoin="round"/><g transform="translate(-21.71 5.29) rotate(-64.54) scale(1 1)"><path d="M-5-4Q0-6 5-3L9-1Q11 1 8 2H3Q7 4 4 5L-2 3-5 1Z" fill="#cdb297" stroke="#101924" stroke-width="1" stroke-linecap="round" stroke-linejoin="round"/><path d="M-1 0 3 1" fill="none" stroke="#aa8a76" stroke-width="0.7" stroke-linecap="round" stroke-linejoin="round"/></g><path d="M-15 35Q-19 48-28 70L-8 75 3 64 14 77 30 67Q23 47 14 33Z" fill="#58768a" stroke="#101924" stroke-width="1.6" stroke-linejoin="round" stroke-linecap="round" /><path d="M1 37-3 63-8 75-28 70-12 42ZM10 39 14 77 30 67 19 54Z" fill="#344e64" /><path d="M-9 43-15 66-6 67 3 47Z" fill="#78909c" /><path d="M3 43 3 62M17 44 22 63" fill="none" stroke="#829aa5" stroke-width="1.3" stroke-linejoin="round" stroke-linecap="round" /><path d="M-7 0-18 9-16 34-12 43 15 40 20 18 11 5 6 1Z" fill="#58768a" stroke="#101924" stroke-width="1.6" stroke-linejoin="round" stroke-linecap="round" /><path d="M-18 9-10 15-8 37-12 43-16 34Z" fill="#344e64" /><path d="M-5 0 1 15 7 2 13 6 1 29-12 6Z" fill="#d0c6ad" stroke="#101924" stroke-width="1" stroke-linejoin="round" stroke-linecap="round" /><path d="M-12 6 1 22 13 6 16 12 3 34-4 31 5 18Z" fill="#869b9f" /><path d="M-13 21-7 29M12 24 9 31" fill="none" stroke="#344e64" stroke-width="1.2" stroke-linejoin="round" stroke-linecap="round" /><path d="M-14 34 16 32 15 40-13 43Z" fill="#333c3e" stroke="#101924" stroke-width="1.1" stroke-linejoin="round" stroke-linecap="round" /><path d="M-13 35 15 33 15 36-13 39Z" fill="#bca16d" /><path d="M5 38 11 38 16 63 10 68 4 48Z" fill="#77684f" stroke="#101924" stroke-width="1" stroke-linejoin="round" stroke-linecap="round" /><path d="M5 38 8 38 12 60 10 63Z" fill="#bca16d" /><g transform="translate(0 -2) rotate(13) scale(1 1)"><path d="M-9-23Q-22-14-17 11L-21 28-12 21-5 11 3-11Z" fill="#192733" stroke="#101924" stroke-width="1.3" stroke-linejoin="round" stroke-linecap="round" /><path d="M-5-29Q-17-44-6-47 7-45 6-31Z" fill="#192733" stroke="#101924" stroke-width="1.4" stroke-linejoin="round" stroke-linecap="round" /><path d="M-9-40-4-44 2-41 2-34Z" fill="#354754" /><path d="M-12-29Q-1-34 9-29L8-25-12-25Z" fill="#bca16d" /><path d="M6-28Q20-30 29-21L20-23 28-12Q17-15 9-24Z" fill="#77684f" /><path d="M-7-7 7-7 8 8-7 9Z" fill="#aa8a76" stroke="#101924" stroke-width="1.2" stroke-linejoin="round" stroke-linecap="round" /><path d="M-13-24Q3-35 15-21L15-12 19-6 15-4 12 3 4 6-9-2-14-13Z" fill="#cdb297" stroke="#101924" stroke-width="1.35" stroke-linejoin="round" stroke-linecap="round" /><path d="M-13-19-4-17-2-2 5 5-6 2-13-5Z" fill="#aa8a76" /><path d="M-15-8Q-20-28-6-33 11-37 17-24L10-15 6-24-3-13-7-9-8-19-12-7-12 8-16 11Z" fill="#192733" stroke="#101924" stroke-width="1.4" stroke-linejoin="round" stroke-linecap="round" /><path d="M-12-25Q-4-33 10-29L1-25-8-16Z" fill="#354754" /><path d="M9-11 13-10" fill="none" stroke="#70675e" stroke-width="1" stroke-linejoin="round" stroke-linecap="round" opacity=".5" /></g><path d="M7.56 18.66 Q40.83 32.21 20.97 6.77 L13.03 15.23 Q25.17 19.79 16.44 5.34Z" fill="#58768a" stroke="#101924" stroke-width="1.35" stroke-linecap="round" stroke-linejoin="round"/><path d="M12 12 Q33 26 17 11 L13.03 15.23 Q25.17 19.79 16.44 5.34Z" fill="#344e64"/><path d="M7.56 18.66 Q40.83 32.21 20.97 6.77" fill="none" stroke="#829aa5" stroke-width="1.1" stroke-linecap="round" stroke-linejoin="round"/><path d="M20.97 6.77 L13.03 15.23" fill="none" stroke="#b8beb1" stroke-width="1.8" stroke-linecap="round" stroke-linejoin="round"/><g transform="translate(14.81 8.95) rotate(-136.85) scale(1 1)"><path d="M-5-4Q0-6 5-3L9-1Q11 1 8 2H3Q7 4 4 5L-2 3-5 1Z" fill="#cdb297" stroke="#101924" stroke-width="1" stroke-linecap="round" stroke-linejoin="round"/><path d="M-1 0 3 1" fill="none" stroke="#aa8a76" stroke-width="0.7" stroke-linecap="round" stroke-linejoin="round"/></g></g><g data-layer="bag-state"><ellipse cx="169" cy="201" rx="22" ry="4" fill="#101924" opacity=".48"/><g transform="translate(169 180) rotate(0) scale(0.68 0.68)"><path d="M-17-12Q-27 4-26 17-21 29-2 29 17 32 25 18 27 5 17-12Z" fill="#887458" stroke="#101924" stroke-width="1.6" stroke-linecap="round" stroke-linejoin="round"/><path d="M7-11Q15 5 8 22L-2 29Q16 33 25 18 27 5 17-12Z" fill="#635743"/><path d="M-13-4Q-22 5-18 17L-13 20-15 8-8-5Z" fill="#b29a75"/><path d="M-16-13-19-20-6-17 1-21 10-17 18-21 17-11Z" fill="#b29a75" stroke="#101924" stroke-width="1.2" stroke-linecap="round" stroke-linejoin="round"/></g><path d="M157 171Q169 175 182 170" fill="none" stroke="#d0ba8b" stroke-width="1.8" stroke-linecap="round" stroke-linejoin="round"/><path d="M173 172Q183 167 183 173L176 174 181 183M173 172 169 180" fill="none" stroke="#bd9e6c" stroke-width="1.2" stroke-linecap="round" stroke-linejoin="round"/><path d="M158 169 162 171 166 169 170 172 174 169 179 171M165 170 163 176M174 170 178 176" fill="none" stroke="#9e4e53" stroke-width="2.1" stroke-linecap="round" stroke-linejoin="round"/><path d="M160 170 163 172M169 171 171 173M177 170 180 171" fill="none" stroke="#d58771" stroke-width="0.8" stroke-linecap="round" stroke-linejoin="round"/></g><path d="M158 168 160 169M164 173 166 174M173 169 175 170M179 171 180 172" fill="none" stroke="#da9480" stroke-width="0.8" stroke-linecap="round" stroke-linejoin="round"/><path d="M0 238 24 228 48 237 72 256H0ZM220 256 238 236 256 231V256Z" fill="#22333e"/><path d="M6 241 22 236 37 242M245 243 254 239" fill="none" stroke="#465b65" stroke-width="1.2" stroke-linecap="round" stroke-linejoin="round"/></g><rect x=".75" y=".75" width="254.5" height="254.5" rx="21.25" fill="none" stroke="#576873" stroke-width="1.5" opacity=".4"/></g></svg>